<svg xmlns="http://www.w3.org/2000/svg" width="1006.314" height="464.943" viewBox="0 0 1006.314 464.943"><path d="M30.407,15.244A15.2,15.2,0,1,1,15.2,0a15.224,15.224,0,0,1,15.21,15.244" fill="#5e5ee6"/><path d="M30.407,15.244A15.2,15.2,0,1,1,15.2,0,15.223,15.223,0,0,1,30.407,15.244" transform="translate(91.222)" fill="#5e5ee6"/><path d="M30.407,15.244A15.2,15.2,0,1,1,15.2,0a15.224,15.224,0,0,1,15.2,15.244" transform="translate(174.841)" fill="#5e5ee6"/><path d="M30.407,15.244A15.2,15.2,0,1,1,15.2,0a15.225,15.225,0,0,1,15.21,15.244" transform="translate(266.063)" fill="#5e5ee6"/><path d="M30.407,15.244A15.2,15.2,0,1,1,15.2,0,15.221,15.221,0,0,1,30.407,15.244" transform="translate(349.683)" fill="#5e5ee6"/><path d="M30.407,15.244A15.2,15.2,0,1,1,15.2,0a15.224,15.224,0,0,1,15.21,15.244" transform="translate(0 83.842)" fill="#5e5ee6"/><path d="M30.407,15.244A15.2,15.2,0,1,1,15.2,0,15.223,15.223,0,0,1,30.407,15.244" transform="translate(91.222 83.842)" fill="#5e5ee6"/><path d="M30.407,15.244A15.2,15.2,0,1,1,15.2,0a15.224,15.224,0,0,1,15.2,15.244" transform="translate(174.841 83.842)" fill="#5e5ee6"/><path d="M30.407,15.244A15.2,15.2,0,1,1,15.2,0a15.225,15.225,0,0,1,15.21,15.244" transform="translate(266.063 83.842)" fill="#5e5ee6"/><path d="M30.407,15.244A15.2,15.2,0,1,1,15.2,0,15.221,15.221,0,0,1,30.407,15.244" transform="translate(349.683 83.842)" fill="#5e5ee6"/><path d="M30.407,19.057c0,10.52-6.806,19.053-15.21,19.053S0,29.577,0,19.057,6.806,0,15.2,0s15.21,8.533,15.21,19.057" transform="translate(0 175.306)" fill="#5e5ee6"/><path d="M30.407,19.057c0,10.52-6.806,19.053-15.207,19.053S0,29.577,0,19.057,6.806,0,15.2,0,30.407,8.533,30.407,19.057" transform="translate(91.222 175.306)" fill="#5e5ee6"/><path d="M30.407,19.057c0,10.52-6.807,19.053-15.2,19.053S0,29.577,0,19.057,6.8,0,15.2,0s15.2,8.533,15.2,19.057" transform="translate(174.841 175.306)" fill="#5e5ee6"/><path d="M30.407,19.057c0,10.52-6.807,19.053-15.21,19.053S0,29.577,0,19.057,6.8,0,15.2,0s15.21,8.533,15.21,19.057" transform="translate(266.063 175.306)" fill="#5e5ee6"/><path d="M30.407,19.057c0,10.52-6.8,19.053-15.207,19.053S0,29.577,0,19.057,6.806,0,15.2,0,30.407,8.533,30.407,19.057" transform="translate(349.683 175.306)" fill="#5e5ee6"/><path d="M30.407,19.053c0,10.524-6.806,19.057-15.21,19.057S0,29.577,0,19.053,6.806,0,15.2,0s15.21,8.533,15.21,19.053" transform="translate(0 259.148)" fill="#5e5ee6"/><path d="M30.407,19.053C30.407,29.577,23.6,38.11,15.2,38.11S0,29.577,0,19.053,6.806,0,15.2,0,30.407,8.533,30.407,19.053" transform="translate(91.222 259.148)" fill="#5e5ee6"/><path d="M30.407,19.053c0,10.524-6.807,19.057-15.2,19.057S0,29.577,0,19.053,6.8,0,15.2,0s15.2,8.533,15.2,19.053" transform="translate(174.841 259.148)" fill="#5e5ee6"/><path d="M30.407,19.053c0,10.524-6.807,19.057-15.21,19.057S0,29.577,0,19.053,6.8,0,15.2,0s15.21,8.533,15.21,19.053" transform="translate(266.063 259.148)" fill="#5e5ee6"/><path d="M30.407,19.053c0,10.524-6.8,19.057-15.207,19.057S0,29.577,0,19.053,6.806,0,15.2,0,30.407,8.533,30.407,19.053" transform="translate(349.683 259.148)" fill="#5e5ee6"/><path d="M30.407,15.244A15.2,15.2,0,1,1,15.2,0a15.226,15.226,0,0,1,15.21,15.244" transform="translate(0 350.612)" fill="#5e5ee6"/><path d="M30.407,15.244A15.2,15.2,0,1,1,15.2,0,15.225,15.225,0,0,1,30.407,15.244" transform="translate(91.222 350.612)" fill="#5e5ee6"/><path d="M30.407,15.244A15.2,15.2,0,1,1,15.2,0a15.226,15.226,0,0,1,15.2,15.244" transform="translate(174.841 350.612)" fill="#5e5ee6"/><path d="M30.407,15.244A15.2,15.2,0,1,1,15.2,0a15.227,15.227,0,0,1,15.21,15.244" transform="translate(266.063 350.612)" fill="#5e5ee6"/><path d="M30.407,15.244A15.2,15.2,0,1,1,15.2,0,15.223,15.223,0,0,1,30.407,15.244" transform="translate(349.683 350.612)" fill="#5e5ee6"/><path d="M30.407,15.244A15.2,15.2,0,1,1,15.2,0a15.224,15.224,0,0,1,15.21,15.244" transform="translate(0 434.455)" fill="#5e5ee6"/><path d="M30.407,15.244A15.2,15.2,0,1,1,15.2,0,15.223,15.223,0,0,1,30.407,15.244" transform="translate(91.222 434.455)" fill="#5e5ee6"/><path d="M30.407,15.244A15.2,15.2,0,1,1,15.2,0a15.224,15.224,0,0,1,15.2,15.244" transform="translate(174.841 434.455)" fill="#5e5ee6"/><path d="M30.407,15.244A15.2,15.2,0,1,1,15.2,0a15.225,15.225,0,0,1,15.21,15.244" transform="translate(266.063 434.455)" fill="#5e5ee6"/><path d="M30.407,15.244A15.2,15.2,0,1,1,15.2,0,15.221,15.221,0,0,1,30.407,15.244" transform="translate(349.683 434.455)" fill="#5e5ee6"/><path d="M30.407,15.244A15.2,15.2,0,1,1,15.2,0,15.221,15.221,0,0,1,30.407,15.244" transform="translate(440.905)" fill="#5e5ee6"/><path d="M30.407,15.244A15.2,15.2,0,1,1,15.2,0,15.221,15.221,0,0,1,30.407,15.244" transform="translate(440.905 83.842)" fill="#5e5ee6"/><path d="M30.407,19.057c0,10.52-6.8,19.053-15.207,19.053S0,29.577,0,19.057,6.806,0,15.2,0,30.407,8.533,30.407,19.057" transform="translate(440.905 175.306)" fill="#5e5ee6"/><path d="M30.407,19.053c0,10.524-6.8,19.057-15.207,19.057S0,29.577,0,19.053,6.806,0,15.2,0,30.407,8.533,30.407,19.053" transform="translate(440.905 259.148)" fill="#5e5ee6"/><path d="M30.407,15.244A15.2,15.2,0,1,1,15.2,0,15.223,15.223,0,0,1,30.407,15.244" transform="translate(440.905 350.612)" fill="#5e5ee6"/><path d="M30.407,15.244A15.2,15.2,0,1,1,15.2,0,15.221,15.221,0,0,1,30.407,15.244" transform="translate(440.905 434.455)" fill="#5e5ee6"/><g transform="translate(535.003)"><path d="M30.407,15.244A15.2,15.2,0,1,1,15.2,0a15.224,15.224,0,0,1,15.21,15.244" fill="#5e5ee6"/><path d="M30.407,15.244A15.2,15.2,0,1,1,15.2,0,15.223,15.223,0,0,1,30.407,15.244" transform="translate(91.222)" fill="#5e5ee6"/><path d="M30.407,15.244A15.2,15.2,0,1,1,15.2,0a15.224,15.224,0,0,1,15.2,15.244" transform="translate(174.841)" fill="#5e5ee6"/><path d="M30.407,15.244A15.2,15.2,0,1,1,15.2,0a15.225,15.225,0,0,1,15.21,15.244" transform="translate(266.063)" fill="#5e5ee6"/><path d="M30.407,15.244A15.2,15.2,0,1,1,15.2,0,15.221,15.221,0,0,1,30.407,15.244" transform="translate(349.683)" fill="#5e5ee6"/><path d="M30.407,15.244A15.2,15.2,0,1,1,15.2,0a15.224,15.224,0,0,1,15.21,15.244" transform="translate(0 83.842)" fill="#5e5ee6"/><path d="M30.407,15.244A15.2,15.2,0,1,1,15.2,0,15.223,15.223,0,0,1,30.407,15.244" transform="translate(91.222 83.842)" fill="#5e5ee6"/><path d="M30.407,15.244A15.2,15.2,0,1,1,15.2,0a15.224,15.224,0,0,1,15.2,15.244" transform="translate(174.841 83.842)" fill="#5e5ee6"/><path d="M30.407,15.244A15.2,15.2,0,1,1,15.2,0a15.225,15.225,0,0,1,15.21,15.244" transform="translate(266.063 83.842)" fill="#5e5ee6"/><path d="M30.407,15.244A15.2,15.2,0,1,1,15.2,0,15.221,15.221,0,0,1,30.407,15.244" transform="translate(349.683 83.842)" fill="#5e5ee6"/><path d="M30.407,19.057c0,10.52-6.806,19.053-15.21,19.053S0,29.577,0,19.057,6.806,0,15.2,0s15.21,8.533,15.21,19.057" transform="translate(0 175.306)" fill="#5e5ee6"/><path d="M30.407,19.057c0,10.52-6.806,19.053-15.207,19.053S0,29.577,0,19.057,6.806,0,15.2,0,30.407,8.533,30.407,19.057" transform="translate(91.222 175.306)" fill="#5e5ee6"/><path d="M30.407,19.057c0,10.52-6.807,19.053-15.2,19.053S0,29.577,0,19.057,6.8,0,15.2,0s15.2,8.533,15.2,19.057" transform="translate(174.841 175.306)" fill="#5e5ee6"/><path d="M30.407,19.057c0,10.52-6.807,19.053-15.21,19.053S0,29.577,0,19.057,6.8,0,15.2,0s15.21,8.533,15.21,19.057" transform="translate(266.063 175.306)" fill="#5e5ee6"/><path d="M30.407,19.057c0,10.52-6.8,19.053-15.207,19.053S0,29.577,0,19.057,6.806,0,15.2,0,30.407,8.533,30.407,19.057" transform="translate(349.683 175.306)" fill="#5e5ee6"/><path d="M30.407,19.053c0,10.524-6.806,19.057-15.21,19.057S0,29.577,0,19.053,6.806,0,15.2,0s15.21,8.533,15.21,19.053" transform="translate(0 259.148)" fill="#5e5ee6"/><path d="M30.407,19.053C30.407,29.577,23.6,38.11,15.2,38.11S0,29.577,0,19.053,6.806,0,15.2,0,30.407,8.533,30.407,19.053" transform="translate(91.222 259.148)" fill="#5e5ee6"/><path d="M30.407,19.053c0,10.524-6.807,19.057-15.2,19.057S0,29.577,0,19.053,6.8,0,15.2,0s15.2,8.533,15.2,19.053" transform="translate(174.841 259.148)" fill="#5e5ee6"/><path d="M30.407,19.053c0,10.524-6.807,19.057-15.21,19.057S0,29.577,0,19.053,6.8,0,15.2,0s15.21,8.533,15.21,19.053" transform="translate(266.063 259.148)" fill="#5e5ee6"/><path d="M30.407,19.053c0,10.524-6.8,19.057-15.207,19.057S0,29.577,0,19.053,6.806,0,15.2,0,30.407,8.533,30.407,19.053" transform="translate(349.683 259.148)" fill="#5e5ee6"/><path d="M30.407,15.244A15.2,15.2,0,1,1,15.2,0a15.226,15.226,0,0,1,15.21,15.244" transform="translate(0 350.612)" fill="#5e5ee6"/><path d="M30.407,15.244A15.2,15.2,0,1,1,15.2,0,15.225,15.225,0,0,1,30.407,15.244" transform="translate(91.222 350.612)" fill="#5e5ee6"/><path d="M30.407,15.244A15.2,15.2,0,1,1,15.2,0a15.226,15.226,0,0,1,15.2,15.244" transform="translate(174.841 350.612)" fill="#5e5ee6"/><path d="M30.407,15.244A15.2,15.2,0,1,1,15.2,0a15.227,15.227,0,0,1,15.21,15.244" transform="translate(266.063 350.612)" fill="#5e5ee6"/><path d="M30.407,15.244A15.2,15.2,0,1,1,15.2,0,15.223,15.223,0,0,1,30.407,15.244" transform="translate(349.683 350.612)" fill="#5e5ee6"/><path d="M30.407,15.244A15.2,15.2,0,1,1,15.2,0a15.224,15.224,0,0,1,15.21,15.244" transform="translate(0 434.455)" fill="#5e5ee6"/><path d="M30.407,15.244A15.2,15.2,0,1,1,15.2,0,15.223,15.223,0,0,1,30.407,15.244" transform="translate(91.222 434.455)" fill="#5e5ee6"/><path d="M30.407,15.244A15.2,15.2,0,1,1,15.2,0a15.224,15.224,0,0,1,15.2,15.244" transform="translate(174.841 434.455)" fill="#5e5ee6"/><path d="M30.407,15.244A15.2,15.2,0,1,1,15.2,0a15.225,15.225,0,0,1,15.21,15.244" transform="translate(266.063 434.455)" fill="#5e5ee6"/><path d="M30.407,15.244A15.2,15.2,0,1,1,15.2,0,15.221,15.221,0,0,1,30.407,15.244" transform="translate(349.683 434.455)" fill="#5e5ee6"/><path d="M30.407,15.244A15.2,15.2,0,1,1,15.2,0,15.221,15.221,0,0,1,30.407,15.244" transform="translate(440.905)" fill="#5e5ee6"/><path d="M30.407,15.244A15.2,15.2,0,1,1,15.2,0,15.221,15.221,0,0,1,30.407,15.244" transform="translate(440.905 83.842)" fill="#5e5ee6"/><path d="M30.407,19.057c0,10.52-6.8,19.053-15.207,19.053S0,29.577,0,19.057,6.806,0,15.2,0,30.407,8.533,30.407,19.057" transform="translate(440.905 175.306)" fill="#5e5ee6"/><path d="M30.407,19.053c0,10.524-6.8,19.057-15.207,19.057S0,29.577,0,19.053,6.806,0,15.2,0,30.407,8.533,30.407,19.053" transform="translate(440.905 259.148)" fill="#5e5ee6"/><path d="M30.407,15.244A15.2,15.2,0,1,1,15.2,0,15.223,15.223,0,0,1,30.407,15.244" transform="translate(440.905 350.612)" fill="#5e5ee6"/><path d="M30.407,15.244A15.2,15.2,0,1,1,15.2,0,15.221,15.221,0,0,1,30.407,15.244" transform="translate(440.905 434.455)" fill="#5e5ee6"/></g></svg>